<svg width="20" height="20" viewBox="0 0 20 20" fill="none" xmlns="http://www.w3.org/2000/svg">
<path d="M9.99999 1.66669C6.77499 1.66669 4.16666 4.27502 4.16666 7.50002C4.16666 10.975 7.84999 15.7667 9.36666 17.5917C9.69999 17.9917 10.3083 17.9917 10.6417 17.5917C12.15 15.7667 15.8333 10.975 15.8333 7.50002C15.8333 4.27502 13.225 1.66669 9.99999 1.66669ZM9.99999 9.58335C8.84999 9.58335 7.91666 8.65002 7.91666 7.50002C7.91666 6.35002 8.84999 5.41669 9.99999 5.41669C11.15 5.41669 12.0833 6.35002 12.0833 7.50002C12.0833 8.65002 11.15 9.58335 9.99999 9.58335Z" fill="url(#paint0_linear_1_541)" fill-opacity="0.95"/>
<defs>
<linearGradient id="paint0_linear_1_541" x1="4.16666" y1="3.49103" x2="9.28248" y2="19.8049" gradientUnits="userSpaceOnUse">
<stop offset="0.095796" stop-color="#201D32"/>
<stop offset="0.515625" stop-color="#100B2D"/>
<stop offset="1" stop-color="#201D32"/>
</linearGradient>
</defs>
</svg>
